<?xml version="1.0" standalone="no"?>
<!DOCTYPE svg PUBLIC "-//W3C//DTD SVG 20010904//EN"
 "http://www.w3.org/TR/2001/REC-SVG-20010904/DTD/svg10.dtd">
<svg version="1.0" xmlns="http://www.w3.org/2000/svg"
 width="9375.000000pt" height="9375.000000pt" viewBox="0 0 9375.000000 9375.000000"
 preserveAspectRatio="xMidYMid meet">

<g transform="translate(0.000000,9375.000000) scale(0.100000,-0.100000)"
fill="#000000" stroke="none">
<path d="M39210 72440 c-909 -36 -1990 -199 -3005 -455 -1448 -364 -2804 -906
-3915 -1562 -1050 -621 -1900 -1331 -2557 -2133 -742 -907 -1231 -1927 -1457
-3041 -55 -271 -101 -616 -133 -1013 -21 -264 -25 -1092 -5 -1346 97 -1278
350 -2416 807 -3635 736 -1962 1877 -3794 3448 -5535 260 -287 1012 -1044
1277 -1284 l184 -167 81 6 c44 3 238 15 430 26 911 51 1497 106 1772 164 119
25 200 55 209 78 6 15 -40 116 -266 592 -785 1651 -1313 3055 -1664 4425 -225
877 -349 1602 -423 2470 -25 299 -25 1192 0 1470 113 1241 423 2187 1001 3055
368 554 867 1061 1441 1466 854 602 1895 1038 3150 1319 220 49 706 142 712
136 2 -1 -97 -33 -220 -70 -615 -187 -1271 -450 -1797 -723 -1106 -572 -1960
-1305 -2547 -2183 -477 -715 -780 -1516 -917 -2425 -89 -592 -103 -1270 -40
-1945 176 -1891 948 -4096 2207 -6300 472 -827 1115 -1780 1273 -1887 227
-155 1291 -397 2054 -468 215 -20 540 -20 633 1 94 21 110 32 163 115 59 91
133 252 381 834 259 605 359 832 516 1170 747 1610 1547 2942 2500 4160 389
496 752 908 1212 1374 1314 1331 2761 2325 4395 3018 257 109 719 287 727 279
1 -1 -68 -33 -155 -71 -221 -97 -732 -354 -957 -482 -1005 -573 -1875 -1250
-2781 -2165 -571 -576 -1009 -1082 -1503 -1737 -1221 -1620 -2301 -3636 -2855
-5330 -179 -546 -269 -947 -270 -1206 -1 -152 10 -206 47 -230 20 -12 109 -42
502 -165 66 -20 271 -85 455 -143 378 -119 468 -147 1015 -315 1581 -486 2683
-779 3365 -894 155 -26 213 -32 355 -32 l170 -1 90 43 c98 47 289 158 540 315
213 133 274 172 1595 1025 140 91 392 253 560 360 168 107 375 240 460 295
425 275 1263 799 1945 1217 3299 2021 6050 3400 7997 4009 677 211 1231 336
1753 393 245 27 725 32 918 9 65 -7 116 -15 114 -18 -2 -2 -62 -10 -133 -19
-1271 -146 -2955 -714 -5004 -1684 -253 -120 -1055 -523 -1374 -690 -2078
-1091 -4565 -2640 -6421 -3998 -1061 -777 -1775 -1392 -1775 -1529 0 -55 107
-130 302 -213 795 -336 3378 -947 6973 -1650 2292 -448 4570 -850 4814 -850
67 0 175 33 721 220 1339 458 2032 681 2770 889 1052 296 1832 462 2576 548
203 23 269 26 584 27 294 1 376 -2 475 -17 235 -35 403 -86 545 -164 35 -20
59 -38 53 -40 -7 -3 -63 1 -125 7 -486 46 -1173 6 -1873 -111 -1403 -235
-3259 -824 -4505 -1430 -414 -202 -620 -339 -620 -411 0 -46 104 -113 395
-257 363 -180 699 -325 1380 -596 587 -234 1392 -540 1865 -710 96 -34 299
-108 450 -163 269 -98 395 -142 1015 -359 1533 -535 3088 -1026 4060 -1282
496 -131 976 -236 1193 -263 56 -6 102 -15 102 -19 0 -4 -39 -14 -87 -23 -370
-67 -1021 17 -1998 259 -1032 255 -2346 664 -4220 1313 -784 272 -965 336
-3065 1086 -1810 647 -2331 822 -2790 938 -235 59 -333 70 -369 41 -184 -150
560 -1699 1679 -3498 841 -1352 1709 -2525 2365 -3193 245 -251 441 -421 625
-542 100 -66 283 -160 313 -160 9 0 17 -4 17 -10 0 -15 -135 -12 -235 5 -116
21 -186 45 -335 116 -270 130 -535 336 -882 686 -493 498 -1010 1165 -1643
2118 -541 816 -928 1455 -2048 3382 -420 722 -631 1051 -735 1144 -114 102
-401 203 -920 323 -221 51 -856 186 -1107 236 -523 103 -1343 279 -2290 490
-546 122 -1224 263 -1630 340 -546 103 -859 144 -1057 138 -107 -3 -119 -5
-142 -27 -34 -32 -42 -80 -27 -179 102 -706 1477 -3166 3084 -5517 1339 -1958
2739 -3730 3861 -4885 72 -74 -28 23 -222 215 -2120 2099 -3896 4255 -5177
6285 -532 842 -980 1652 -1456 2630 -567 1167 -628 1283 -803 1520 -169 229
-281 307 -571 394 -380 113 -781 180 -2170 362 -548 72 -1036 156 -1293 224
-63 16 -225 66 -360 110 -731 236 -1549 432 -2137 512 -190 25 -567 36 -657
18 -134 -26 -158 -48 -189 -170 -21 -84 -19 -577 4 -790 144 -1333 564 -3080
1190 -4945 820 -2442 1917 -4781 3182 -6780 236 -374 595 -906 788 -1170 117
-160 132 -181 120 -170 -31 28 -343 405 -552 665 -2095 2615 -3635 5478 -4591
8540 -369 1181 -611 2203 -880 3720 -155 873 -192 1046 -253 1183 -35 78 -93
133 -221 206 -291 166 -965 376 -1836 571 -1091 244 -2519 470 -2972 470 -112
0 -178 -20 -300 -91 -731 -425 -2001 -1633 -3014 -2869 -1272 -1550 -2218
-3133 -2791 -4665 -249 -667 -440 -1379 -539 -2007 -209 -1331 -98 -2587 329
-3738 115 -308 284 -681 424 -930 88 -157 95 -170 89 -170 -2 0 -60 96 -129
213 -932 1591 -1285 3285 -1056 5057 274 2113 1364 4316 3264 6595 473 567
923 1060 1680 1840 558 575 605 634 605 766 0 61 -16 94 -69 142 -198 179
-789 227 -2226 182 -258 -8 -627 -19 -820 -25 -192 -6 -615 -15 -940 -20 -689
-10 -960 -29 -1590 -111 -440 -57 -475 -65 -857 -200 -379 -134 -707 -274
-1073 -459 -590 -298 -1065 -615 -1530 -1021 -521 -456 -969 -1006 -1308
-1609 -498 -887 -777 -1872 -874 -3095 -32 -393 -21 -1152 23 -1700 185 -2298
1044 -4405 2550 -6256 509 -625 1114 -1241 1764 -1794 1359 -1157 2971 -2137
4815 -2925 621 -266 1429 -560 2015 -734 1520 -450 3078 -679 4450 -652 888
17 1628 124 2190 318 255 88 523 244 606 354 27 35 29 44 29 123 -1 250 -185
684 -995 2351 -861 1772 -1268 2666 -1644 3613 -546 1375 -834 2386 -941 3307
-21 178 -31 658 -16 820 48 560 219 967 530 1263 178 169 419 303 673 373 128
35 372 45 498 20 346 -69 650 -249 984 -581 632 -630 1275 -1736 2020 -3477
343 -800 654 -1587 1216 -3078 812 -2151 1114 -2914 1478 -3730 739 -1656
1360 -2504 1932 -2635 126 -29 220 -21 760 65 1244 196 2042 345 2747 515
1024 247 1933 584 2962 1100 951 475 1761 969 2296 1398 124 100 363 338 433
432 107 142 158 286 141 394 -10 68 -29 100 -86 147 -150 125 -377 269 -1433
909 -917 555 -1184 720 -1830 1128 -3206 2027 -5249 3718 -6187 5122 -134 201
-181 279 -284 480 -158 306 -247 570 -295 870 -21 135 -21 400 0 525 87 506
359 895 907 1302 108 80 317 169 479 204 115 24 377 25 509 0 948 -175 2084
-1195 3727 -3346 453 -593 795 -1061 1684 -2305 1357 -1899 1921 -2655 2529
-3390 1232 -1490 2180 -2239 2943 -2324 204 -23 329 -10 583 60 1049 287 2165
942 3415 2003 523 443 908 806 1850 1741 404 402 782 771 840 820 271 234 357
313 524 481 212 211 440 456 911 979 412 457 681 743 964 1025 759 757 1247
1107 1786 1280 483 154 959 244 2065 390 882 116 1168 182 1260 287 38 43 38
76 -1 139 -75 120 -242 256 -684 559 -299 204 -487 355 -655 524 -191 192
-307 368 -379 573 -48 134 -56 210 -55 543 1 350 12 525 99 1570 118 1411 130
1620 130 2315 0 556 -5 676 -41 945 -47 351 -131 622 -244 782 -82 118 -311
320 -525 463 -497 333 -1093 533 -1824 611 -245 26 -759 36 -1051 20 -864 -48
-1873 -235 -3015 -560 -595 -169 -979 -289 -2100 -658 -915 -300 -1360 -417
-1995 -522 -1220 -203 -2530 -234 -3545 -85 -813 119 -1423 353 -1761 677
-123 117 -180 194 -258 347 -136 269 -215 594 -216 889 0 352 96 643 317 954
79 111 342 374 483 482 759 584 2032 1058 4040 1504 849 188 1734 311 2715
376 1036 68 1485 75 4340 68 1302 -4 1711 14 2120 93 285 55 457 140 515 254
47 94 52 364 10 570 -88 433 -292 978 -671 1790 -68 146 -321 657 -562 1137
-240 480 -462 930 -493 1000 -151 346 -327 632 -628 1018 -760 976 -1701 1809
-2439 2159 -491 234 -754 268 -1392 180 -210 -28 -267 -38 -635 -105 -1072
-196 -2628 -583 -4120 -1026 -2106 -624 -3951 -1307 -5310 -1965 -587 -284
-1050 -568 -1775 -1091 -290 -209 -1165 -873 -1480 -1122 -95 -75 -505 -397
-1085 -851 -1632 -1278 -2456 -1847 -2985 -2059 -191 -77 -361 -97 -446 -52
-97 51 -249 306 -307 517 -126 452 -17 984 324 1576 515 896 1589 1963 2934
2916 201 142 644 433 820 538 211 126 519 292 671 361 791 363 2816 1102 4299
1571 140 44 341 107 445 140 406 128 977 299 1449 433 1292 366 2373 614 3121
714 191 26 464 48 675 56 566 20 875 116 1012 313 117 169 84 407 -100 719
-370 623 -1431 1575 -2972 2662 -260 184 -284 201 -417 290 -149 99 -161 109
-453 386 -256 243 -362 337 -515 461 -465 375 -881 611 -1395 792 -394 139
-780 210 -1260 233 -805 39 -1750 -154 -2713 -552 -1084 -448 -2140 -1101
-3257 -2013 -1022 -834 -2154 -1941 -3466 -3386 -341 -376 -638 -707 -969
-1080 -867 -978 -1321 -1473 -1730 -1889 -811 -823 -1353 -1192 -1719 -1168
-121 7 -222 53 -370 166 -284 216 -464 527 -517 892 -19 132 -14 391 9 551
120 796 628 1791 1565 3063 232 313 371 492 866 1110 563 704 739 899 1073
1193 635 557 1284 940 2673 1577 938 430 1058 486 1273 589 122 58 239 117
260 130 45 28 104 92 128 138 26 49 30 171 9 243 -208 715 -1928 1894 -3995
2737 -1422 581 -2881 967 -4325 1147 -602 75 -1377 112 -1915 91z m-4400
-3255 c156 -33 247 -64 375 -127 141 -70 229 -131 315 -218 81 -83 128 -153
163 -246 18 -50 22 -79 22 -189 0 -111 -3 -140 -24 -200 -56 -164 -134 -278
-320 -469 -310 -315 -625 -583 -886 -751 -302 -194 -522 -435 -654 -716 -62
-132 -81 -192 -132 -413 -201 -875 -484 -1305 -942 -1428 -67 -18 -109 -22
-227 -23 -327 0 -560 93 -780 315 -280 281 -452 702 -521 1275 -17 136 -17
504 0 640 37 311 120 593 253 860 488 977 1471 1610 2668 1719 25 2 162 2 305
1 237 -3 271 -5 385 -30z m21639 -2805 c334 -30 614 -139 845 -331 246 -205
409 -492 445 -784 15 -121 14 -176 -4 -281 -73 -417 -376 -780 -855 -1023
-253 -129 -484 -207 -1190 -403 -585 -162 -1002 -245 -1408 -279 -197 -16
-522 -7 -672 20 -360 63 -612 217 -756 461 -60 101 -85 184 -91 300 -6 119 12
200 71 325 129 271 413 535 949 881 117 75 347 226 512 335 381 251 523 336
765 458 307 155 510 228 795 285 211 42 396 53 594 36z m-17848 -5788 c116
-41 229 -139 326 -282 70 -105 120 -208 225 -464 49 -121 135 -329 190 -461
362 -868 478 -1300 478 -1785 0 -198 -10 -294 -46 -460 -54 -241 -112 -380
-234 -551 -148 -209 -437 -451 -699 -584 -87 -44 -223 -93 -316 -115 -129 -30
-331 -28 -456 4 -221 58 -418 175 -585 349 -312 323 -461 750 -481 1372 -26
842 240 1745 729 2470 209 309 382 462 589 520 72 20 206 14 280 -13z m-7766
-12252 c120 -32 209 -83 293 -166 59 -59 81 -90 117 -166 77 -162 83 -304 21
-486 -30 -86 -643 -1321 -752 -1512 -213 -375 -436 -673 -714 -950 -384 -385
-741 -552 -1145 -537 -165 6 -246 26 -379 90 -161 78 -288 193 -393 354 -139
213 -203 436 -203 702 1 379 113 732 345 1080 148 224 321 424 695 804 203
207 328 316 443 386 253 154 702 326 1018 391 163 33 230 39 409 35 130 -3
182 -8 245 -25z m39875 -1413 c309 -74 540 -225 674 -439 245 -395 151 -999
-213 -1368 -214 -216 -446 -312 -886 -364 -688 -82 -1374 53 -1792 350 -103
74 -259 230 -315 315 -81 123 -145 279 -179 434 -17 80 -17 246 0 315 69 277
310 473 726 589 215 61 431 97 810 136 138 14 306 32 375 40 189 23 188 23
450 20 222 -2 255 -5 350 -28z m-13470 -1567 c328 -41 752 -241 1102 -523 57
-45 168 -145 247 -222 322 -313 595 -689 859 -1182 352 -656 488 -1321 367
-1798 -78 -307 -248 -520 -519 -650 -203 -97 -512 -152 -701 -126 -284 40
-505 158 -745 400 -244 246 -305 347 -699 1166 -100 207 -156 308 -374 670
-260 432 -380 690 -448 965 -20 82 -24 119 -24 280 0 142 4 204 18 268 94 431
357 712 702 752 92 11 123 11 215 0z m-20871 -3766 c82 -19 214 -83 293 -143
204 -155 364 -408 462 -732 87 -289 122 -566 156 -1224 43 -855 57 -950 265
-1771 158 -624 202 -872 212 -1194 22 -725 -213 -1242 -696 -1534 -102 -61
-203 -102 -326 -131 -134 -32 -221 -38 -333 -25 -363 41 -650 278 -1027 845
-687 1035 -992 2344 -835 3595 54 434 167 872 310 1205 125 294 276 520 471
711 219 213 463 357 675 398 43 8 88 17 99 20 34 8 207 -4 274 -20z m14649
-4789 c231 -29 433 -91 827 -255 761 -317 1322 -650 1689 -1001 460 -439 610
-965 402 -1404 -142 -301 -404 -528 -713 -621 -73 -22 -114 -27 -239 -31 -131
-5 -166 -2 -255 17 -263 56 -848 314 -1214 534 -809 489 -1280 1095 -1426
1838 -29 145 -31 348 -5 453 31 121 81 212 160 290 165 165 420 224 774 180z
m-18343 -1325 c42 -55 74 -100 71 -100 -2 0 -35 39 -72 88 -36 48 -71 93 -77
100 -5 6 -7 12 -4 12 4 0 40 -45 82 -100z m96 -127 c13 -16 12 -17 -3 -4 -17
13 -22 21 -14 21 2 0 10 -8 17 -17z m113 -143 c43 -52 56 -72 31 -45 -46 50
-152 184 -123 155 9 -8 50 -58 92 -110z"/>
<path d="M34200 23764 c-184 -27 -311 -64 -445 -131 -309 -154 -513 -419 -587
-763 -30 -135 -29 -377 0 -507 43 -190 112 -313 257 -459 189 -190 394 -311
950 -561 571 -256 781 -424 861 -688 14 -46 18 -91 18 -190 -1 -113 -4 -141
-27 -211 -75 -227 -267 -384 -552 -450 -101 -24 -430 -27 -540 -5 -487 96
-828 432 -940 926 l-22 100 -102 3 c-55 1 -101 -1 -101 -6 0 -20 70 -1073 76
-1140 l6 -73 65 3 66 3 66 115 c36 63 70 121 74 128 7 9 19 5 50 -19 226 -170
462 -280 683 -319 274 -47 676 -19 929 66 579 194 912 674 864 1242 -41 482
-341 769 -1239 1185 -407 189 -521 250 -667 359 -198 148 -271 273 -280 483
-10 198 40 330 169 450 112 104 240 155 437 175 291 30 564 -67 753 -268 114
-123 204 -280 279 -492 l37 -105 101 -3 c91 -2 101 -1 101 15 0 41 -51 972
-56 1021 l-5 52 -59 0 c-68 0 -63 5 -149 -148 -34 -59 -58 -91 -66 -88 -7 2
-55 34 -106 69 -172 118 -330 184 -518 216 -113 19 -300 26 -381 15z"/>
<path d="M55085 23763 c-722 -63 -1305 -451 -1617 -1078 -135 -270 -206 -521
-239 -843 -15 -149 -6 -563 15 -697 110 -682 445 -1168 993 -1439 255 -126
495 -187 808 -205 431 -24 759 40 1100 216 460 238 520 259 787 279 l76 6 4
401 c4 376 5 406 25 465 26 77 61 124 117 157 52 30 158 55 239 55 l57 0 0
110 0 110 -767 -2 -768 -3 -3 -107 -3 -108 58 0 c153 -1 305 -52 372 -125 80
-87 104 -173 105 -375 1 -162 -7 -198 -73 -325 -65 -126 -220 -260 -387 -335
-186 -84 -380 -122 -624 -122 -348 0 -605 75 -827 241 -299 223 -485 595 -559
1111 -22 153 -30 566 -15 741 46 533 197 931 457 1209 103 109 212 189 348
256 196 95 385 131 635 121 347 -15 596 -109 800 -302 171 -162 256 -341 283
-592 l12 -113 133 0 133 0 1 53 c0 28 15 306 33 617 18 311 31 568 29 573 -2
4 -46 7 -98 7 l-93 0 -57 -169 -56 -170 -87 51 c-121 72 -369 189 -478 227
-223 76 -446 112 -678 109 -83 -1 -169 -3 -191 -5z"/>
<path d="M11920 23611 l0 -110 48 -6 c312 -43 459 -175 632 -564 28 -64 360
-863 738 -1776 l688 -1660 96 -3 c71 -2 97 1 101 10 269 672 1501 3655 1530
3706 69 123 160 200 285 243 71 24 175 49 208 49 24 0 24 0 24 110 l0 110
-657 -2 -658 -3 0 -105 0 -105 100 -6 c239 -14 318 -80 316 -269 0 -104 -23
-192 -101 -400 -116 -309 -987 -2441 -993 -2428 -404 1017 -990 2502 -1018
2581 -72 201 -82 343 -27 412 45 58 158 91 341 102 l118 6 -3 106 -3 106 -882
3 -883 2 0 -109z"/>
<path d="M16954 23707 c-3 -8 -3 -56 -2 -107 l3 -94 99 -13 c305 -38 394 -133
427 -456 6 -66 9 -589 6 -1482 -4 -1526 -1 -1457 -68 -1593 -64 -130 -159
-173 -441 -198 l-78 -6 0 -104 0 -104 880 0 880 0 0 104 0 104 -82 7 c-240 20
-302 38 -374 109 -57 58 -86 122 -112 251 -15 72 -17 223 -17 1500 0 1331 1
1426 18 1510 20 98 51 175 93 230 54 72 177 121 326 132 l88 6 0 108 0 109
-820 0 c-672 0 -822 -2 -826 -13z"/>
<path d="M19630 23610 l0 -110 48 0 c26 0 96 -9 156 -20 236 -40 301 -117 326
-385 14 -148 14 -2772 0 -2917 -28 -294 -118 -376 -444 -407 -60 -6 -118 -11
-128 -11 -16 0 -18 -10 -18 -105 l0 -105 1749 0 1749 0 7 63 c8 84 75 963 75
987 0 19 -7 20 -105 20 l-104 0 -11 -42 c-27 -111 -88 -282 -129 -363 -66
-130 -164 -227 -292 -288 -184 -90 -423 -127 -813 -127 -328 0 -492 20 -636
77 -204 81 -284 211 -311 503 -7 76 -9 562 -6 1425 3 1137 6 1320 19 1385 46
218 140 288 418 308 l95 7 0 105 0 105 -822 3 -823 2 0 -110z"/>
<path d="M23990 23612 l0 -109 84 -7 c326 -25 418 -106 446 -391 13 -140 13
-2802 0 -2934 -30 -288 -120 -369 -444 -400 -60 -6 -118 -11 -128 -11 -16 0
-18 -10 -18 -105 l0 -105 1749 0 1750 0 5 53 c8 68 76 960 76 992 0 25 0 25
-105 25 l-104 0 -11 -42 c-31 -125 -77 -254 -122 -346 -41 -84 -65 -118 -127
-182 -63 -64 -92 -85 -171 -123 -185 -90 -424 -127 -814 -127 -328 0 -492 20
-636 77 -172 69 -247 163 -293 369 l-22 99 0 1365 c0 1080 3 1383 13 1450 14
87 45 170 82 218 56 70 162 108 342 120 l93 7 0 105 0 105 -822 3 -823 2 0
-108z"/>
<path d="M30012 23703 c-5 -10 -323 -803 -706 -1763 -384 -960 -718 -1786
-743 -1837 -98 -197 -223 -288 -458 -329 -44 -8 -81 -14 -82 -14 -2 0 -3 -47
-3 -105 l0 -105 660 0 660 0 0 104 0 103 -82 7 c-216 17 -292 57 -328 170 -20
63 -7 202 34 346 41 150 78 251 197 553 l91 227 718 0 c674 0 718 -1 725 -17
4 -10 67 -178 141 -373 74 -195 139 -366 145 -379 24 -57 49 -191 49 -269 0
-179 -85 -236 -375 -251 l-120 -6 -3 -107 -3 -108 886 0 885 0 0 110 0 110
-67 0 c-85 0 -187 22 -244 51 -100 50 -205 181 -301 374 -89 177 -185 410
-807 1955 l-630 1565 -115 3 c-102 2 -116 1 -124 -15z m277 -1583 c161 -429
292 -783 289 -785 -3 -3 -277 -4 -610 -3 l-606 3 311 783 c171 430 313 782
316 782 3 0 138 -351 300 -780z"/>
<path d="M38854 23707 c-3 -8 -3 -56 -2 -107 l3 -94 99 -13 c307 -38 393 -131
426 -458 8 -78 10 -516 7 -1485 -4 -1520 -1 -1452 -68 -1588 -64 -130 -159
-173 -441 -198 l-78 -6 0 -104 0 -104 880 0 880 0 0 104 0 104 -82 7 c-132 11
-219 24 -273 42 -69 23 -145 100 -175 178 -55 147 -53 99 -57 1560 -4 1398 -2
1509 36 1658 49 189 170 277 403 294 l88 6 0 108 0 109 -820 0 c-672 0 -822
-2 -826 -13z"/>
<path d="M41725 23708 c-10 -29 -83 -984 -76 -991 4 -4 50 -6 102 -5 l94 3 26
105 c35 145 55 201 105 302 80 160 202 264 374 316 133 40 209 43 1023 40
l779 -3 -1413 -1945 c-776 -1069 -1414 -1952 -1417 -1962 -4 -17 76 -18 1872
-18 1032 0 1876 1 1877 3 4 11 66 1264 62 1270 -4 6 -233 11 -233 4 0 -1 -11
-68 -25 -147 -30 -167 -76 -354 -111 -442 -74 -189 -196 -314 -368 -375 -155
-55 -372 -65 -1364 -61 l-824 3 1406 1944 c774 1070 1405 1949 1403 1955 -6
17 -3286 20 -3292 4z"/>
<path d="M45984 23707 c-3 -8 -3 -56 -2 -108 l3 -94 111 -6 c282 -17 381 -80
437 -279 36 -127 40 -230 47 -1370 8 -1147 9 -1169 50 -1363 90 -424 304 -700
660 -849 204 -86 390 -121 735 -138 589 -29 1013 95 1296 379 164 165 271 367
334 636 67 284 75 409 75 1290 0 992 12 1225 74 1420 26 82 72 158 116 193 67
52 135 71 295 80 l110 7 0 105 0 105 -785 0 -785 0 0 -105 0 -105 125 -6 c143
-8 202 -19 269 -53 116 -59 181 -185 215 -418 31 -210 37 -459 34 -1363 -4
-967 -3 -942 -63 -1148 -105 -362 -332 -569 -717 -654 -105 -23 -492 -26 -603
-4 -228 44 -385 121 -511 253 -111 115 -175 238 -219 418 -45 189 -47 228 -42
1400 4 1168 4 1162 51 1323 20 70 70 144 121 179 59 41 133 58 283 65 l132 6
0 108 0 109 -920 0 c-755 0 -922 -2 -926 -13z"/>
<path d="M59980 23698 c-5 -13 -325 -812 -710 -1776 -385 -964 -715 -1783
-734 -1820 -108 -211 -234 -295 -508 -337 l-38 -6 0 -104 0 -105 660 0 660 0
0 104 0 104 -92 7 c-175 14 -259 50 -300 128 -20 36 -23 57 -23 142 1 155 51
324 232 783 l96 242 720 -2 720 -3 144 -379 c79 -208 155 -417 169 -465 31
-107 37 -246 12 -303 -37 -84 -149 -126 -363 -137 l-120 -6 -3 -107 -3 -108
886 0 885 0 0 110 0 110 -57 0 c-302 0 -431 131 -669 675 -26 61 -334 821
-684 1690 l-636 1580 -117 3 c-114 3 -117 2 -127 -20z m282 -1580 l294 -783
-302 -3 c-166 -1 -441 -1 -611 0 l-308 3 310 782 c170 431 313 783 316 783 3
0 139 -352 301 -782z"/>
<path d="M62925 23708 c-3 -8 -4 -57 -3 -109 l3 -94 80 -7 c99 -9 221 -33 269
-53 53 -22 116 -83 139 -134 50 -113 50 -101 54 -1534 5 -1626 1 -1722 -75
-1847 -62 -102 -171 -143 -439 -165 l-83 -7 0 -104 0 -104 955 0 955 0 0 103
0 103 -182 12 c-408 26 -512 102 -548 402 -6 48 -10 353 -10 717 l0 633 83 0
c191 -1 322 -47 431 -151 38 -37 360 -440 750 -939 l683 -875 526 -3 527 -2 0
105 c0 58 -2 105 -4 105 -25 0 -223 47 -295 71 -165 53 -266 116 -382 236 -57
58 -1249 1488 -1249 1497 0 2 28 9 63 15 325 63 576 186 745 366 206 219 304
542 261 862 -61 454 -436 768 -1034 868 -214 35 -290 38 -1252 42 -824 4 -964
3 -968 -9z m2005 -282 c343 -78 495 -251 541 -612 16 -129 6 -343 -21 -449
-65 -259 -228 -422 -505 -504 -155 -45 -226 -53 -572 -58 l-333 -5 0 797 c0
800 1 824 34 848 6 4 184 6 396 4 318 -3 398 -7 460 -21z"/>
<path d="M67635 23708 c-3 -8 -4 -57 -3 -109 l3 -94 83 -8 c197 -17 311 -59
369 -135 38 -51 58 -114 73 -232 13 -111 13 -2875 0 -2980 -21 -156 -65 -246
-148 -298 -82 -52 -171 -71 -399 -87 l-93 -7 0 -105 0 -104 1198 4 c1096 3
1206 5 1307 21 948 156 1582 755 1730 1636 22 130 30 427 16 575 -83 858 -624
1531 -1454 1808 -127 43 -288 80 -447 103 -101 15 -248 18 -1173 21 -900 4
-1058 2 -1062 -9z m2230 -296 c144 -33 244 -68 348 -122 128 -65 204 -117 304
-207 301 -271 479 -667 538 -1198 27 -241 16 -625 -25 -850 -95 -515 -340
-869 -735 -1060 -183 -88 -356 -128 -629 -147 -268 -18 -487 14 -641 95 -80
42 -184 146 -218 219 -59 126 -57 44 -57 1721 l0 1537 21 21 c20 20 26 20 512
16 456 -3 499 -5 582 -25z"/>
<path d="M72824 23707 c-3 -8 -3 -56 -2 -108 l3 -94 80 -7 c307 -28 402 -96
440 -316 14 -77 15 -276 12 -1583 -3 -1394 -4 -1498 -21 -1561 -41 -156 -138
-231 -336 -257 -36 -5 -102 -12 -147 -16 l-83 -7 0 -104 0 -104 1679 0 1680 0
5 43 c6 44 76 979 76 1010 0 15 -12 17 -103 17 l-103 0 -28 -102 c-64 -233
-135 -369 -250 -483 -173 -172 -379 -231 -832 -242 -453 -11 -682 37 -819 172
-63 61 -98 134 -119 244 -14 71 -16 183 -16 747 l0 664 59 0 c99 0 312 -19
396 -36 340 -68 495 -190 540 -427 8 -43 15 -101 15 -128 l0 -49 100 0 100 0
0 740 0 740 -100 0 -100 0 0 -47 c0 -71 -26 -178 -59 -250 -71 -150 -229 -246
-471 -287 -97 -16 -334 -36 -427 -36 l-53 0 0 795 c0 774 1 796 19 814 11 11
36 23 57 27 55 10 945 -3 1054 -16 242 -28 416 -96 525 -205 93 -93 149 -207
189 -389 l23 -101 97 -3 96 -3 0 28 c0 57 -41 869 -46 901 l-5 32 -1560 0
c-1286 0 -1561 -2 -1565 -13z"/>
<path d="M77180 23611 l0 -108 78 -7 c242 -20 364 -97 414 -261 41 -133 41
-135 45 -1500 4 -1329 1 -1522 -32 -1663 -43 -184 -145 -267 -357 -293 -51 -6
-118 -14 -148 -18 l-55 -6 0 -100 0 -100 730 0 730 0 3 94 c1 52 -1 98 -5 102
-4 4 -57 12 -118 18 -134 14 -209 34 -255 69 -48 36 -57 48 -91 120 -63 133
-62 111 -66 1586 -3 875 -1 1337 6 1335 5 -2 573 -746 1261 -1654 689 -907
1268 -1669 1287 -1692 l34 -43 160 0 159 0 0 1673 c0 982 4 1731 10 1815 16
227 47 328 127 404 74 71 167 101 360 115 l98 8 0 105 0 105 -727 3 -728 2 0
-108 0 -109 99 -6 c274 -17 355 -85 409 -345 13 -67 16 -236 19 -1329 3 -799
0 -1253 -6 -1253 -5 0 -541 709 -1190 1575 l-1181 1575 -535 0 -535 0 0 -109z"/>
</g>
</svg>
